# xmcd CD database file
#
# Track frame offsets:
#	150
#	23905
#	44972
#	71342
#	98460
#	123007
#	149180
#	164507
#	193984
#	231052
#	264477
#
# Disc length: 3792 seconds
#
# Revision: 1
# Processed by: cddbd v1.4PL0 Copyright (c) Steve Scherf et al.
# Submitted via: CDex 1.50Beta7
#
DISCID=a00ece0b
DTITLE=Marva Wright - Live At Bourbon Street Music Club
DYEAR=1996
DGENRE=Blues
TTITLE0=Glitter Queen
TTITLE1=I've Got My Mojo Working
TTITLE2=The Thrill Is Gone
TTITLE3=Stand By Me
TTITLE4=Proud Mary
TTITLE5=Help Me Make It Trough The Night
TTITLE6=All Of Me
TTITLE7=My Christmas Song
TTITLE8=Gospel Medley
TTITLE9=What A Wonderful World
TTITLE10=Bluesiana Mama
EXTD=YEAR: 1996
EXTT0=
EXTT1=
EXTT2=
EXTT3=
EXTT4=
EXTT5=
EXTT6=
EXTT7=
EXTT8=
EXTT9=
EXTT10=
PLAYORDER=
